<?xml version="1.0" encoding="UTF-8" standalone="no"?>
<!-- Created with Inkscape (http://www.inkscape.org/) -->

<svg
   width="512"
   height="512"
   viewBox="0 0 135.46667 135.46667"
   version="1.1"
   id="svg5"
   xmlns:xlink="http://www.w3.org/1999/xlink"
   xmlns="http://www.w3.org/2000/svg"
   xmlns:svg="http://www.w3.org/2000/svg">
  <defs
     id="defs2">
    <rect
       x="97.580733"
       y="138.59293"
       width="461.03361"
       height="379.00922"
       id="rect4161" />
    <linearGradient
       id="linearGradient1453">
      <stop
         style="stop-color:#ffffff;stop-opacity:1"
         offset="0"
         id="stop1451" />
      <stop
         style="stop-color:#f1fffe;stop-opacity:1"
         offset="1"
         id="stop1449" />
    </linearGradient>
    <linearGradient
       xlink:href="#linearGradient1453"
       id="linearGradient1455"
       x1="41.907864"
       y1="31.617987"
       x2="106.45345"
       y2="96.163582"
       gradientUnits="userSpaceOnUse"
       spreadMethod="reflect" />
  </defs>
  <g
     id="layer5"
     style="display:inline;opacity:1">
    <circle
       style="opacity:1;fill:url(#linearGradient1455);fill-opacity:1;stroke:none;stroke-width:10.3176;stroke-linecap:square"
       id="path1221"
       cx="67.733337"
       cy="67.733337"
       r="67.733337" />
  </g>
  <g
     id="layer2" />
  <g
     id="layer4"
     style="display:inline">
    <g
       id="g9282"
       transform="matrix(0.877572,0,0,0.877572,-2.3458872,8.2924567)"
       style="display:inline">
      <path
         d="m 115.0712,75.172089 -0.24958,0.534826 c -3.07415,6.340443 -9.51066,10.375265 -16.523558,10.375265 -8.646056,0 -16.235366,-6.148306 -17.964586,-14.602222 -0.2882,-1.152809 -0.38427,-2.497752 -0.38427,-3.746625 0,-1.248876 0.0961,-2.401681 0.38427,-3.650554 1.63315,-8.549984 9.22246,-14.69829 17.964586,-14.69829 7.397168,0 14.025808,4.419092 16.907828,11.143801 l 0.27165,0.620918 a 1.5290153,1.5290153 33.185316 0 0 1.40082,0.916157 h 11.92976 a 0.74187343,0.74187343 126.57074 0 0 0.70999,-0.957024 l -0.67067,-2.213195 c -1.82527,-6.532576 -5.8601,-12.392676 -11.23987,-16.523568 -5.5719,-4.22696 -12.29661,-6.436506 -19.309508,-6.436506 -7.685386,0 -15.178636,2.785949 -20.942666,7.877514 -5.76404,4.9955 -9.51066,11.912341 -10.5674,19.405585 -0.19213,1.537078 -0.2882,2.978086 -0.2882,4.515162 0,1.537078 0.0961,3.170219 0.2882,4.707298 1.05674,7.493243 4.89943,14.314019 10.5674,19.309517 5.8601,5.091565 13.25728,7.781449 20.942666,7.781449 6.820768,0 13.353338,-2.113482 18.925238,-6.148306 5.37977,-4.034825 9.31853,-9.41459 11.33594,-15.75503 l 0.75691,-2.408361 a 0.73393925,0.73393925 53.723593 0 0 -0.70017,-0.953994 l -12.12189,0 a 1.5701955,1.5701955 147.50843 0 0 -1.42289,0.906183 z"
         id="path7113-3"
         style="font-weight:bold;font-size:266.667px;line-height:1.25;font-family:Aquire;-inkscape-font-specification:'Aquire Bold';white-space:pre;display:inline;stroke-width:0.360251" />
      <g
         id="g9275"
         transform="translate(0,-8.65e-5)">
        <path
           id="path7111"
           style="font-weight:bold;font-size:266.667px;line-height:1.25;font-family:Aquire;-inkscape-font-specification:'Aquire Bold';white-space:pre;stroke-width:1.36158"
           d="m 147.07422,140.18164 v 42.83203 a 4,4 45 0 0 4,4 h 92.57422 c 2.20914,0 5.78344,0.16542 7.97792,0.41928 2.07972,0.24058 4.66593,-1.03485 5.85087,-2.89921 7.63768,-12.01705 17.19934,-22.79524 28.2487,-31.82167 1.71077,-1.39756 3.14852,-2.49318 3.1647,-2.50505 l 0.0293,-0.0234 c 4.14382,-3.01683 3.26486,-4.27288 1.22043,-5.10961 -10.34501,-4.23392 -21.24837,-7.01066 -32.33367,-8.1805 -2.19683,-0.23183 -5.77526,-0.35657 -7.98439,-0.36405 l -98.7481,-0.33428 a 3.9864823,3.9864823 135.09698 0 0 -3.99998,3.98646 z m 0,64.41406 v 167.22266 a 4,4 45 0 0 4,4 h 103.4668 4.72656 c 13.59297,-2.06003 22.86495,-4.71819 31.62537,-8.38333 2.03787,-0.85259 2.17251,-2.59756 0.37483,-3.88142 -0.37207,-0.26572 -0.70879,-0.51303 -0.75408,-0.5497 l -0.0879,-0.0586 c -14.73026,-11.63718 -24.64384,-22.47238 -32.54017,-34.6536 -1.20161,-1.85366 -2.34172,-3.347 -2.61217,-3.30537 h -53.36721 a 4,4 45 0 1 -4,-4 V 204.5957 a 4,4 45 0 0 -4,-4 h -42.83203 a 4,4 135 0 0 -4,4 z"
           transform="scale(0.26458334)" />
        <path
           style="color:#000000;-inkscape-font-specification:'Aquire Bold';fill:none;-inkscape-stroke:none"
           d="m 97.751953,32.626953 c -7.707582,0 -15.15802,2.443419 -21.308594,7.109375 l -0.0078,0.0059 -0.0078,0.0059 C 70.48317,44.312622 66.044837,50.750396 64.017578,58.005859 l 0.01953,-0.07031 -2.253906,7.4375 h 20.550781 l 1.544922,-3.53125 0.0039,-0.0098 c 2.365388,-5.519235 7.789158,-9.140625 13.869141,-9.140625 7.191434,0 13.381144,5.029436 14.714844,12.011719 l 0.0137,0.0625 0.0137,0.06055 c 0.22414,0.971367 0.29883,1.827037 0.29883,2.90625 0,1.079262 -0.10181,2.211913 -0.28516,2.945312 l -0.0176,0.07031 -0.0137,0.06836 c -1.41158,6.901015 -7.64647,11.958985 -14.724604,11.958985 -5.744353,0 -11.02306,-3.306346 -13.546875,-8.511719 L 82.662109,70.958984 H 80.556641 61.927734 l 2.410157,7.666016 0.002,0.0059 c 2.230636,7.010566 6.613186,12.981861 12.501953,17.398438 l 0.02344,0.01563 0.02148,0.01758 c 6.122126,4.433262 13.361274,6.777342 20.865234,6.777342 8.457072,0 16.646392,-2.976673 23.111322,-8.593748 l 0.01,-0.0078 0.008,-0.0078 c 6.23199,-5.492602 10.48345,-13.011903 11.65625,-21.328125 l 0.004,-0.02539 0.002,-0.02539 c 0.21102,-1.688445 0.31445,-3.444213 0.31445,-5.11914 0,-1.674882 -0.1076,-3.268956 -0.31445,-4.923828 l -0.002,-0.02734 -0.004,-0.02539 C 131.36969,54.477806 127.23586,46.84757 120.875,41.328125 114.49488,35.696135 106.23279,32.626953 97.751953,32.626953 Z m 0,6.615234 c 6.886107,0 13.605197,2.50252 18.751957,7.048829 l 0.0117,0.0098 0.0137,0.01172 c 5.15412,4.46691 8.50494,10.656152 9.45312,17.351562 0.17432,1.404889 0.25977,2.681075 0.25977,4.06836 0,1.387153 -0.0895,2.885819 -0.25977,4.261719 -0.94327,6.659474 -4.37075,12.771705 -9.46484,17.265625 -5.25405,4.561834 -11.85523,6.964843 -18.765627,6.964843 -6.12849,0 -11.946273,-1.880035 -16.962891,-5.505859 -4.576187,-3.438727 -7.879814,-7.911219 -9.759765,-13.146484 h 7.505859 c 3.709367,7.208742 11.107571,11.816406 19.216797,11.816406 10.183617,0 19.098127,-7.199481 21.179687,-17.160156 0.38157,-1.553639 0.47656,-3.094066 0.47656,-4.496094 0,-1.400875 -0.12084,-2.832408 -0.46289,-4.337891 -1.96097,-10.080671 -10.92465,-17.316406 -21.193357,-17.316406 -8.714358,0 -16.54862,5.216315 -19.947266,13.146484 l 0.0098,-0.02148 0.193359,-0.445313 H 70.769531 C 72.519187,53.365947 75.930894,48.473056 80.451172,45 85.442557,41.21658 91.437601,39.242187 97.751953,39.242187 Z"
           id="path9273" />
      </g>
    </g>
  </g>
</svg>
